Coordinates
version=1
nRows=24
nColumns=22
inDegrees=yes

Units are S.I. units (second, meters, Newtons, ...)
If the header above contains a line with 'inDegrees', this indicates whether rotational values are in degrees (yes) or radians (no).

endheader
time	pelvis_tilt	pelvis_list	pelvis_rotation	pelvis_tx	pelvis_ty	pelvis_tz	hip_flexion_r	hip_adduction_r	hip_rotation_r	knee_angle_r	ankle_angle_r	subtalar_angle_r	hip_flexion_l	hip_adduction_l	hip_rotation_l	knee_angle_l	ankle_angle_l	subtalar_angle_l	lumbar_extension	lumbar_bending	lumbar_rotation
      1.54000000	      8.80034515	     -0.07462049	     84.16080874	      0.95541057	      0.91759185	      0.28377951	     -4.38495367	      6.45746103	     -7.90702878	    -13.45141122	     13.84248237	      6.04209418	     31.88739857	     -3.04267757	     -0.08818019	    -53.93527484	      4.69951041	     -8.68634860	    -11.46288675	      4.83464711	      2.61366621
      1.55000000	      8.70673345	     -0.17181391	     84.33281375	      0.95619467	      0.91664858	      0.27500311	     -5.35169167	      6.43224354	     -8.11184427	    -12.58137718	     14.06552494	      6.19929036	     32.29795355	     -3.12992566	     -0.32294856	    -50.60219121	      4.83926573	     -8.64845543	    -11.27645781	      4.65470364	      3.08761215
      1.56000000	      8.62977928	     -0.29685321	     84.48079055	      0.95694089	      0.91545226	      0.26611920	     -6.29224175	      6.42330726	     -8.30517170	    -11.72540215	     14.29087645	      6.35713755	     32.62819120	     -3.25843597	     -0.56801474	    -47.10464996	      4.86823054	     -8.51630194	    -11.04923250	      4.49034500	      3.54615472
      1.57000000	      8.58025902	     -0.44625657	     84.59926665	      0.95769289	      0.91400738	      0.25712591	     -7.21678488	      6.44463023	     -8.46444973	    -10.87367619	     14.51260028	      6.51102357	     32.88523133	     -3.45306260	     -0.84262036	    -43.48244085	      4.77815087	     -8.29628609	    -10.78681833	      4.34644535	      3.98913476
      1.58000000	      8.57128141	     -0.61756035	     84.68852986	      0.95846988	      0.91231253	      0.24802564	     -8.12795359	      6.50990688	     -8.57939611	    -10.02986964	     14.73056676	      6.66213029	     33.08187746	     -3.73851735	     -1.17306227	    -39.78814420	      4.59777791	     -7.99587136	    -10.49418605	      4.23650289	      4.41909330
      1.59000000	      8.61355361	     -0.79791507	     84.75167971	      0.95926650	      0.91038443	      0.23882139	     -9.03505101	      6.62761066	     -8.64133658	     -9.20481750	     14.94943986	      6.82223354	     33.21679654	     -4.12805837	     -1.58473383	    -36.07427471	      4.38790162	     -7.60065554	    -10.18836771	      4.17217029	      4.83772400
      1.60000000	      8.68049679	     -1.01762709	     84.76099076	      0.96016192	      0.90819317	      0.22948720	     -9.88464876	      6.76408348	     -8.66713200	     -8.43473891	     15.14350907	      6.94680493	     33.34506428	     -4.64201604	     -2.24842516	    -32.42289057	      4.12708623	     -7.26080025	     -9.82383285	      4.11243910	      5.26995750
      1.61000000	      8.79587269	     -1.24135254	     84.73686339	      0.96105204	      0.90578299	      0.22001938	    -10.71688594	      6.93741881	     -8.64534870	     -7.72113535	     15.34380572	      7.07347075	     33.44762206	     -5.27057607	     -3.17938132	    -28.91162459	      3.93447034	     -6.91611258	     -9.44984986	      4.10125002	      5.70031907
      1.62000000	      8.94727862	     -1.44863125	     84.67386274	      0.96193106	      0.90320372	      0.21040302	    -11.53738481	      7.12466394	     -8.58128867	     -7.09324630	     15.56016305	      7.21378246	     33.52000808	     -5.99248497	     -4.45586789	    -25.62700221	      3.86241932	     -6.55118213	     -9.08644665	      4.11678808	      6.13212812
      1.63000000	      9.10699980	     -1.61647999	     84.58509187	      0.96272692	      0.90051787	      0.20059000	    -12.36727339	      7.28939761	     -8.48667360	     -6.55734445	     15.77246479	      7.38558462	     33.54715522	     -6.74645624	     -6.11003049	    -22.64043357	      3.95057289	     -6.12769274	     -8.75030097	      4.13276776	      6.52916015
      1.64000000	      9.27794053	     -1.79643923	     84.45089089	      0.96342715	      0.89768357	      0.19063542	    -13.11115643	      7.42412851	     -8.34370059	     -6.18050219	     16.00512792	      7.56991069	     33.62770430	     -7.53360826	     -8.17077045	    -20.08668116	      4.16300533	     -5.78136248	     -8.38955305	      4.16162473	      6.95966481
      1.65000000	      9.46786888	     -2.02308543	     84.28888423	      0.96397682	      0.89467800	      0.18056764	    -13.70594069	      7.53611420	     -8.16565252	     -6.00866406	     16.27028449	      7.74905120	     33.82550168	     -8.33343595	    -10.50434698	    -18.05611660	      4.53106404	     -5.55124437	     -7.96553568	      4.22372905	      7.41419339
      1.66000000	      9.60446631	     -2.10640411	     84.14994039	      0.96424439	      0.89187619	      0.17024192	    -14.42427221	      7.54667764	     -7.97437280	     -5.90462703	     16.48218680	      8.05235647	     33.89660594	     -9.02225744	    -13.00415997	    -16.52466077	      4.95772218	     -5.21673148	     -7.68390710	      4.21632941	      7.77997196
      1.67000000	      9.75092011	     -2.24355999	     84.02094480	      0.96430908	      0.88900247	      0.15980824	    -14.97076816	      7.53291038	     -7.75933141	     -6.02337835	     16.69144914	      8.36120452	     34.11748242	     -9.70402219	    -15.49561398	    -15.62344691	      5.42049993	     -5.06676637	     -7.33080125	      4.23311627	      8.14063145
      1.68000000	      9.88539439	     -2.38936151	     83.92823590	      0.96415211	      0.88619072	      0.14919708	    -15.41422631	      7.48039148	     -7.53503291	     -6.32393552	     16.86225711	      8.62471626	     34.42118679	    -10.35597623	    -17.84857293	    -15.33705314	      5.85260904	     -5.08436000	     -6.94570351	      4.23969740	      8.46335334
      1.69000000	      9.96241231	     -2.45964209	     83.88280190	      0.96374882	      0.88366279	      0.13833335	    -15.88373518	      7.34230829	     -7.27306529	     -6.72725218	     16.94868506	      9.07681582	     34.67919661	    -10.93464799	    -20.05134764	    -15.59750626	      6.06357050	     -5.42266324	     -6.61891950	      4.16960959	      8.71150274
      1.70000000	     10.00062636	     -2.53611101	     83.90241592	      0.96310629	      0.88131683	      0.12721590	    -16.25390123	      7.15411592	     -7.03386863	     -7.30349957	     16.93063157	      9.48236078	     34.98954310	    -11.46767465	    -22.00427128	    -16.38590696	      6.12331503	     -6.12886243	     -6.24668999	      4.05432344	      8.89566371
      1.71000000	      9.97095923	     -2.58882453	     84.00119255	      0.96221255	      0.87925140	      0.11578471	    -16.59679283	      6.89823763	     -6.78568509	     -7.97492742	     16.82333041	      9.86658264	     35.29788840	    -11.91844206	    -23.71270738	    -17.60338158	      5.92247126	     -7.19809015	     -5.85217560	      3.85296192	      8.99732795
      1.72000000	      9.85506401	     -2.61122721	     84.19012789	      0.96101940	      0.87752656	      0.10401141	    -16.91002353	      6.55914712	     -6.57126750	     -8.75562189	     16.56091302	     10.25509131	     35.57465202	    -12.24714984	    -25.16972340	    -19.12452197	      5.50678789	     -8.66388935	     -5.43768679	      3.54782750	      8.99932403
      1.73000000	      9.63399989	     -2.60787578	     84.48040765	      0.95949410	      0.87618055	      0.09188804	    -17.19737994	      6.12729843	     -6.39657669	     -9.62455882	     16.11884132	     10.65581573	     35.81505184	    -12.40993720	    -26.34843193	    -20.83812699	      4.91574562	    -10.43587031	     -4.99610361	      3.11724141	      8.90912120
      1.74000000	      9.30627023	     -2.57350454	     84.89562696	      0.95753065	      0.87525724	      0.07945065	    -17.45727142	      5.60514083	     -6.29820489	    -10.59108478	     15.43803733	     11.09138734	     36.00430236	    -12.34896139	    -27.14561805	    -22.61900250	      4.23891780	    -12.40462945	     -4.54393936	      2.57189549	      8.69552650
      1.75000000	      8.85882672	     -2.52712597	     85.44510279	      0.95515322	      0.87474932	      0.06671157	    -17.68520515	      4.99479922	     -6.27153633	    -11.62751804	     14.56283890	     11.59097203	     36.16385260	    -12.02792280	    -27.52915386	    -24.39972730	      3.59460724	    -14.28696000	     -4.06038173	      1.88511180	      8.36479435
      1.76000000	      8.32839375	     -2.44527022	     86.13382947	      0.95229210	      0.87470817	      0.05376899	    -17.87935127	      4.32755111	     -6.36100342	    -12.78195229	     13.41843450	     12.15550854	     36.27021750	    -11.44394102	    -27.43361717	    -26.12153124	      3.06332208	    -15.87820193	     -3.60509599	      1.11084937	      7.92339573
      1.77000000	      7.72957006	     -2.34297832	     86.91082587	      0.94904173	      0.87514484	      0.04068374	    -18.00996891	      3.61091693	     -6.46260064	    -14.07630572	     11.97680598	     12.80248353	     36.30725450	    -10.63153738	    -26.95405237	    -27.72530444	      2.68335386	    -17.09558321	     -3.17499463	      0.26039247	      7.44530321
